<mxfile host="app.diagrams.net" modified="2021-11-02T15:30:30.450Z" agent="5.0 (Windows NT 10.0; Win64; x64) AppleWebKit/537.36 (KHTML, like Gecko) Chrome/94.0.4606.81 Safari/537.36 Edg/94.0.992.47" etag="2sqENuoPbMiZ8ZJz7bN3" version="15.6.5" type="github">
  <diagram id="R2lEEEUBdFMjLlhIrx00" name="Page-1">
    <mxGraphModel dx="1422" dy="754" grid="1" gridSize="10" guides="1" tooltips="1" connect="1" arrows="1" fold="1" page="1" pageScale="1" pageWidth="850" pageHeight="1100" math="0" shadow="0" extFonts="Permanent Marker^https://fonts.googleapis.com/css?family=Permanent+Marker">
      <root>
        <mxCell id="0" />
        <mxCell id="1" parent="0" />
        <mxCell id="eUREMZXZOI4aX_m3psY_-1" value="User" style="shape=umlActor;verticalLabelPosition=bottom;verticalAlign=top;html=1;outlineConnect=0;fillColor=default;strokeColor=default;fontColor=default;" vertex="1" parent="1">
          <mxGeometry x="60" y="350" width="60" height="90" as="geometry" />
        </mxCell>
        <mxCell id="eUREMZXZOI4aX_m3psY_-2" value="Discord bot" style="rounded=1;arcSize=10;whiteSpace=wrap;html=1;align=center;fontColor=default;strokeColor=default;fillColor=default;" vertex="1" parent="1">
          <mxGeometry x="360" y="340" width="100" height="160" as="geometry" />
        </mxCell>
        <mxCell id="eUREMZXZOI4aX_m3psY_-5" value="Create game" style="html=1;verticalAlign=bottom;endArrow=block;rounded=0;labelBackgroundColor=default;fontColor=default;strokeColor=default;entryX=0;entryY=0.25;entryDx=0;entryDy=0;fillColor=default;" edge="1" parent="1" target="eUREMZXZOI4aX_m3psY_-2">
          <mxGeometry width="80" relative="1" as="geometry">
            <mxPoint x="130" y="380" as="sourcePoint" />
            <mxPoint x="290" y="360" as="targetPoint" />
          </mxGeometry>
        </mxCell>
        <mxCell id="eUREMZXZOI4aX_m3psY_-9" value="Game link" style="html=1;verticalAlign=bottom;endArrow=block;rounded=0;labelBackgroundColor=default;fontColor=default;strokeColor=default;fillColor=default;entryX=0.25;entryY=1;entryDx=0;entryDy=0;exitX=0.25;exitY=0;exitDx=0;exitDy=0;" edge="1" parent="1" source="eUREMZXZOI4aX_m3psY_-2" target="eUREMZXZOI4aX_m3psY_-29">
          <mxGeometry x="0.0769" y="35" width="80" relative="1" as="geometry">
            <mxPoint x="360" y="420" as="sourcePoint" />
            <mxPoint x="130" y="420" as="targetPoint" />
            <mxPoint as="offset" />
          </mxGeometry>
        </mxCell>
        <mxCell id="eUREMZXZOI4aX_m3psY_-13" value="Website" style="rounded=1;arcSize=10;whiteSpace=wrap;html=1;align=center;labelBackgroundColor=default;fontColor=default;strokeColor=default;fillColor=default;" vertex="1" parent="1">
          <mxGeometry x="360" y="580" width="100" height="180" as="geometry" />
        </mxCell>
        <mxCell id="eUREMZXZOI4aX_m3psY_-14" style="edgeStyle=orthogonalEdgeStyle;rounded=0;orthogonalLoop=1;jettySize=auto;html=1;exitX=0.5;exitY=1;exitDx=0;exitDy=0;labelBackgroundColor=default;fontColor=default;strokeColor=default;fillColor=default;" edge="1" parent="1" source="eUREMZXZOI4aX_m3psY_-13" target="eUREMZXZOI4aX_m3psY_-13">
          <mxGeometry relative="1" as="geometry" />
        </mxCell>
        <mxCell id="eUREMZXZOI4aX_m3psY_-15" value="Server" style="rounded=1;arcSize=10;whiteSpace=wrap;html=1;align=center;labelBackgroundColor=default;fontColor=default;strokeColor=default;fillColor=default;" vertex="1" parent="1">
          <mxGeometry x="650" y="340" width="140" height="210" as="geometry" />
        </mxCell>
        <mxCell id="eUREMZXZOI4aX_m3psY_-16" value="New game type" style="html=1;verticalAlign=bottom;endArrow=block;rounded=0;labelBackgroundColor=default;fontColor=default;strokeColor=default;exitX=1;exitY=0.25;exitDx=0;exitDy=0;entryX=0.014;entryY=0.19;entryDx=0;entryDy=0;entryPerimeter=0;fillColor=default;" edge="1" parent="1" source="eUREMZXZOI4aX_m3psY_-2" target="eUREMZXZOI4aX_m3psY_-15">
          <mxGeometry width="80" relative="1" as="geometry">
            <mxPoint x="460" y="370" as="sourcePoint" />
            <mxPoint x="620" y="390" as="targetPoint" />
          </mxGeometry>
        </mxCell>
        <mxCell id="eUREMZXZOI4aX_m3psY_-17" value="New game data" style="html=1;verticalAlign=bottom;endArrow=block;rounded=0;labelBackgroundColor=default;fontColor=default;strokeColor=default;entryX=1;entryY=0.5;entryDx=0;entryDy=0;exitX=0.007;exitY=0.381;exitDx=0;exitDy=0;exitPerimeter=0;fillColor=default;" edge="1" parent="1" source="eUREMZXZOI4aX_m3psY_-15" target="eUREMZXZOI4aX_m3psY_-2">
          <mxGeometry width="80" relative="1" as="geometry">
            <mxPoint x="500" y="450" as="sourcePoint" />
            <mxPoint x="580" y="450" as="targetPoint" />
          </mxGeometry>
        </mxCell>
        <mxCell id="eUREMZXZOI4aX_m3psY_-18" value="Game link" style="html=1;verticalAlign=bottom;endArrow=block;rounded=0;labelBackgroundColor=default;fontColor=default;strokeColor=default;fillColor=default;entryX=0;entryY=0.25;entryDx=0;entryDy=0;" edge="1" parent="1" target="eUREMZXZOI4aX_m3psY_-13">
          <mxGeometry width="80" relative="1" as="geometry">
            <mxPoint x="130" y="410" as="sourcePoint" />
            <mxPoint x="360" y="630" as="targetPoint" />
          </mxGeometry>
        </mxCell>
        <mxCell id="eUREMZXZOI4aX_m3psY_-21" value="Get game from ID" style="html=1;verticalAlign=bottom;endArrow=block;rounded=0;labelBackgroundColor=default;fontColor=default;strokeColor=default;exitX=1;exitY=0.25;exitDx=0;exitDy=0;entryX=0;entryY=0.5;entryDx=0;entryDy=0;fillColor=default;" edge="1" parent="1" source="eUREMZXZOI4aX_m3psY_-13" target="eUREMZXZOI4aX_m3psY_-15">
          <mxGeometry width="80" relative="1" as="geometry">
            <mxPoint x="490" y="620" as="sourcePoint" />
            <mxPoint x="610" y="625" as="targetPoint" />
          </mxGeometry>
        </mxCell>
        <mxCell id="eUREMZXZOI4aX_m3psY_-22" value="Game data" style="html=1;verticalAlign=bottom;endArrow=block;rounded=0;labelBackgroundColor=default;fontColor=default;strokeColor=default;exitX=0;exitY=0.75;exitDx=0;exitDy=0;entryX=1;entryY=0.5;entryDx=0;entryDy=0;fillColor=default;" edge="1" parent="1" source="eUREMZXZOI4aX_m3psY_-15" target="eUREMZXZOI4aX_m3psY_-13">
          <mxGeometry width="80" relative="1" as="geometry">
            <mxPoint x="600" y="669.5" as="sourcePoint" />
            <mxPoint x="680" y="669.5" as="targetPoint" />
          </mxGeometry>
        </mxCell>
        <mxCell id="eUREMZXZOI4aX_m3psY_-23" value="Gameplay" style="html=1;verticalAlign=bottom;endArrow=block;rounded=0;labelBackgroundColor=default;fontColor=default;strokeColor=default;entryX=0;entryY=0.75;entryDx=0;entryDy=0;fillColor=default;" edge="1" parent="1" target="eUREMZXZOI4aX_m3psY_-13">
          <mxGeometry x="0.3167" y="7" width="80" relative="1" as="geometry">
            <mxPoint x="130" y="440" as="sourcePoint" />
            <mxPoint x="210" y="540" as="targetPoint" />
            <Array as="points">
              <mxPoint x="130" y="715" />
            </Array>
            <mxPoint as="offset" />
          </mxGeometry>
        </mxCell>
        <mxCell id="eUREMZXZOI4aX_m3psY_-24" value="Actions..." style="html=1;verticalAlign=bottom;endArrow=block;rounded=0;labelBackgroundColor=default;fontColor=default;strokeColor=default;exitX=1;exitY=0.75;exitDx=0;exitDy=0;entryX=0.25;entryY=1;entryDx=0;entryDy=0;fillColor=default;" edge="1" parent="1" source="eUREMZXZOI4aX_m3psY_-13" target="eUREMZXZOI4aX_m3psY_-15">
          <mxGeometry x="-0.3846" y="5" width="80" relative="1" as="geometry">
            <mxPoint x="520" y="720" as="sourcePoint" />
            <mxPoint x="600" y="720" as="targetPoint" />
            <Array as="points">
              <mxPoint x="685" y="715" />
            </Array>
            <mxPoint as="offset" />
          </mxGeometry>
        </mxCell>
        <mxCell id="eUREMZXZOI4aX_m3psY_-25" value="Turn data from opponents" style="html=1;verticalAlign=bottom;endArrow=block;rounded=0;labelBackgroundColor=default;fontColor=default;strokeColor=default;exitX=0.5;exitY=1;exitDx=0;exitDy=0;entryX=0.75;entryY=1;entryDx=0;entryDy=0;fillColor=default;" edge="1" parent="1" source="eUREMZXZOI4aX_m3psY_-15" target="eUREMZXZOI4aX_m3psY_-13">
          <mxGeometry x="0.3694" width="80" relative="1" as="geometry">
            <mxPoint x="730" y="600" as="sourcePoint" />
            <mxPoint x="810" y="600" as="targetPoint" />
            <Array as="points">
              <mxPoint x="720" y="790" />
              <mxPoint x="435" y="790" />
            </Array>
            <mxPoint as="offset" />
          </mxGeometry>
        </mxCell>
        <mxCell id="eUREMZXZOI4aX_m3psY_-27" value="Game events" style="html=1;verticalAlign=bottom;endArrow=block;rounded=0;labelBackgroundColor=default;fontColor=default;strokeColor=default;exitX=0.25;exitY=0;exitDx=0;exitDy=0;entryX=0.75;entryY=0;entryDx=0;entryDy=0;fillColor=default;" edge="1" parent="1" source="eUREMZXZOI4aX_m3psY_-15" target="eUREMZXZOI4aX_m3psY_-2">
          <mxGeometry x="-0.0137" width="80" relative="1" as="geometry">
            <mxPoint x="710" y="310" as="sourcePoint" />
            <mxPoint x="550" y="270" as="targetPoint" />
            <Array as="points">
              <mxPoint x="685" y="300" />
              <mxPoint x="435" y="300" />
            </Array>
            <mxPoint as="offset" />
          </mxGeometry>
        </mxCell>
        <mxCell id="eUREMZXZOI4aX_m3psY_-29" value="Discord Text Channel" style="rounded=1;arcSize=10;whiteSpace=wrap;html=1;align=center;labelBackgroundColor=default;fontColor=default;strokeColor=default;fillColor=default;" vertex="1" parent="1">
          <mxGeometry x="360" y="80" width="100" height="130" as="geometry" />
        </mxCell>
        <mxCell id="eUREMZXZOI4aX_m3psY_-31" value="Game events" style="html=1;verticalAlign=bottom;endArrow=block;rounded=0;labelBackgroundColor=default;fontColor=default;strokeColor=default;fillColor=default;exitX=0.5;exitY=0;exitDx=0;exitDy=0;entryX=0.5;entryY=1;entryDx=0;entryDy=0;" edge="1" parent="1" source="eUREMZXZOI4aX_m3psY_-2" target="eUREMZXZOI4aX_m3psY_-29">
          <mxGeometry x="0.0769" y="-40" width="80" relative="1" as="geometry">
            <mxPoint x="490" y="230" as="sourcePoint" />
            <mxPoint x="570" y="230" as="targetPoint" />
            <mxPoint as="offset" />
          </mxGeometry>
        </mxCell>
        <mxCell id="eUREMZXZOI4aX_m3psY_-35" value="Message" style="html=1;verticalAlign=bottom;endArrow=block;rounded=0;labelBackgroundColor=default;fontColor=default;strokeColor=default;fillColor=default;exitX=0;exitY=0.75;exitDx=0;exitDy=0;" edge="1" parent="1" source="eUREMZXZOI4aX_m3psY_-29">
          <mxGeometry width="80" relative="1" as="geometry">
            <mxPoint x="210" y="180" as="sourcePoint" />
            <mxPoint x="120" y="340" as="targetPoint" />
          </mxGeometry>
        </mxCell>
        <mxCell id="eUREMZXZOI4aX_m3psY_-39" value="" style="endArrow=block;dashed=1;endFill=0;endSize=12;html=1;rounded=0;labelBackgroundColor=default;fontColor=default;strokeColor=default;fillColor=default;exitX=0;exitY=0.25;exitDx=0;exitDy=0;entryX=1;entryY=0.25;entryDx=0;entryDy=0;" edge="1" parent="1" source="eUREMZXZOI4aX_m3psY_-2" target="eUREMZXZOI4aX_m3psY_-2">
          <mxGeometry width="160" relative="1" as="geometry">
            <mxPoint x="320" y="520" as="sourcePoint" />
            <mxPoint x="440" y="470" as="targetPoint" />
          </mxGeometry>
        </mxCell>
        <mxCell id="eUREMZXZOI4aX_m3psY_-40" value="" style="endArrow=block;dashed=1;endFill=0;endSize=12;html=1;rounded=0;labelBackgroundColor=default;fontColor=default;strokeColor=default;fillColor=default;entryX=0.25;entryY=0;entryDx=0;entryDy=0;exitX=1;exitY=0.5;exitDx=0;exitDy=0;" edge="1" parent="1" source="eUREMZXZOI4aX_m3psY_-2" target="eUREMZXZOI4aX_m3psY_-2">
          <mxGeometry width="160" relative="1" as="geometry">
            <mxPoint x="200" y="444.5" as="sourcePoint" />
            <mxPoint x="360" y="444.5" as="targetPoint" />
          </mxGeometry>
        </mxCell>
        <mxCell id="eUREMZXZOI4aX_m3psY_-41" value="" style="endArrow=block;dashed=1;endFill=0;endSize=12;html=1;rounded=0;labelBackgroundColor=default;fontColor=default;strokeColor=default;fillColor=default;exitX=0;exitY=0.25;exitDx=0;exitDy=0;entryX=1;entryY=0.25;entryDx=0;entryDy=0;" edge="1" parent="1" source="eUREMZXZOI4aX_m3psY_-13" target="eUREMZXZOI4aX_m3psY_-13">
          <mxGeometry width="160" relative="1" as="geometry">
            <mxPoint x="280" y="650" as="sourcePoint" />
            <mxPoint x="440" y="650" as="targetPoint" />
          </mxGeometry>
        </mxCell>
        <mxCell id="eUREMZXZOI4aX_m3psY_-42" value="" style="endArrow=block;dashed=1;endFill=0;endSize=12;html=1;rounded=0;labelBackgroundColor=default;fontColor=default;strokeColor=default;fillColor=default;exitX=0;exitY=0.75;exitDx=0;exitDy=0;entryX=1;entryY=0.75;entryDx=0;entryDy=0;" edge="1" parent="1" source="eUREMZXZOI4aX_m3psY_-13" target="eUREMZXZOI4aX_m3psY_-13">
          <mxGeometry width="160" relative="1" as="geometry">
            <mxPoint x="220" y="770" as="sourcePoint" />
            <mxPoint x="380" y="770" as="targetPoint" />
          </mxGeometry>
        </mxCell>
      </root>
    </mxGraphModel>
  </diagram>
</mxfile>
